<?xml version="1.0" encoding="UTF-8"?>
<svg version="1.1" xmlns="http://www.w3.org/2000/svg" width="500" height="500">
<path d="M0 0 C165 0 330 0 500 0 C500 165 500 330 500 500 C335 500 170 500 0 500 C0 335 0 170 0 0 Z " fill="#000000" transform="translate(0,0)"/>
<path d="M0 0 C2.17041428 -0.00956867 4.33982291 -0.04055875 6.51000977 -0.07226562 C22.95227217 -0.19573415 37.59967238 2.83877662 52.40258789 10.24023438 C52.40258789 20.14023438 52.40258789 30.04023438 52.40258789 40.24023438 C41.51258789 40.24023438 30.62258789 40.24023438 19.40258789 40.24023438 C18.41258789 38.26023438 17.42258789 36.28023437 16.40258789 34.24023438 C13.79338961 32.93563524 11.81316174 33.10757497 8.90258789 33.11523438 C7.92290039 33.11265625 6.94321289 33.11007813 5.93383789 33.10742188 C3.40827735 33.07083385 3.40827735 33.07083385 1.40258789 34.24023438 C1.40258789 36.55023438 1.40258789 38.86023438 1.40258789 41.24023438 C8.98435888 45.29730795 16.89266999 47.97127162 25.02758789 50.70898438 C38.74612723 55.48210147 49.75639697 61.92783389 56.40258789 75.24023438 C58.5971851 80.42274602 58.70478498 85.08234251 58.65258789 90.61523438 C58.66418945 91.83339844 58.66418945 91.83339844 58.67602539 93.07617188 C58.64064064 104.11621269 55.34641338 113.18299096 47.90258789 121.42773438 C35.76994268 132.87620786 18.81787903 134.76039226 2.94042969 134.63134766 C0.60364778 134.61532734 -1.73138694 134.63124315 -4.06811523 134.65039062 C-13.95348108 134.6643426 -22.98583094 133.58948955 -32.59741211 131.24023438 C-33.4358667 131.04059082 -34.27432129 130.84094727 -35.13818359 130.63525391 C-37.06954427 130.15776943 -38.99055353 129.63888323 -40.90991211 129.11523438 C-42.14354492 128.78265625 -43.37717773 128.45007813 -44.64819336 128.10742188 C-47.59741211 127.24023438 -47.59741211 127.24023438 -49.59741211 126.24023438 C-49.59741211 115.02023437 -49.59741211 103.80023438 -49.59741211 92.24023438 C-37.38741211 92.24023438 -25.17741211 92.24023438 -12.59741211 92.24023438 C-11.93741211 94.55023438 -11.27741211 96.86023438 -10.59741211 99.24023438 C-7.26343905 101.46288308 -6.0022632 101.53698901 -2.09741211 101.55273438 C-0.65881836 101.57787109 -0.65881836 101.57787109 0.80883789 101.60351562 C3.42886364 101.45234222 3.42886364 101.45234222 5.20336914 99.86914062 C6.55316039 98.23221162 6.55316039 98.23221162 7.09008789 95.86523438 C6.58944352 92.91360532 6.58944352 92.91360532 3.46508789 90.80273438 C-0.68613695 88.44524867 -5.09202739 86.95083853 -9.59741211 85.42773438 C-23.56140731 80.69214534 -39.06247736 74.76961979 -47.09741211 61.55273438 C-52.30893856 50.04394679 -53.47351485 37.05685613 -49.69116211 24.90429688 C-46.04768741 16.02983349 -40.08701618 9.65529818 -31.59741211 5.24023438 C-20.97614939 1.18461834 -11.27108815 0.02990009 0 0 Z " fill="#D7D7D7" transform="translate(299.597412109375,175.759765625)"/>
<path d="M0 0 C0.99 0.33 1.98 0.66 3 1 C1.85242546 3.71244891 0.57458503 5.49258575 -1.375 7.75 C-9.97432778 17.84596595 -10.68095134 29.50130586 -9.76953125 42.21484375 C-9.53886726 44.8123208 -9.27298638 47.40662935 -9 50 C-13.62 50 -18.24 50 -23 50 C-23.06058594 48.66324219 -23.12117188 47.32648438 -23.18359375 45.94921875 C-23.26800687 44.19530179 -23.35265448 42.4413961 -23.4375 40.6875 C-23.47681641 39.80642578 -23.51613281 38.92535156 -23.55664062 38.01757812 C-23.59853516 37.17001953 -23.64042969 36.32246094 -23.68359375 35.44921875 C-23.72025146 34.66893311 -23.75690918 33.88864746 -23.79467773 33.0847168 C-23.94125263 30.80670899 -23.94125263 30.80670899 -25 28 C-28.14791642 26.95069453 -30.62910518 26.73132666 -33.9375 26.625 C-34.97777344 26.57601562 -36.01804688 26.52703125 -37.08984375 26.4765625 C-40.14957857 26.74140501 -40.14957857 26.74140501 -42.14953613 29.14648438 C-44.31163123 32.48055225 -44.50591682 34.23964138 -44.51757812 38.1796875 C-44.53018677 39.40445801 -44.54279541 40.62922852 -44.55578613 41.89111328 C-44.54768921 43.2057959 -44.53959229 44.52047852 -44.53125 45.875 C-44.53394691 47.24593379 -44.53783099 48.6168657 -44.54284668 49.98779297 C-44.54873254 52.85598019 -44.54020921 55.72366789 -44.52148438 58.59179688 C-44.4986942 62.26060752 -44.51182235 65.92824764 -44.53577423 69.59701538 C-44.55025761 72.42643995 -44.54561485 75.25558891 -44.53526306 78.08502197 C-44.53131298 80.09298466 -44.54341962 82.10095823 -44.55578613 84.10888672 C-44.54317749 85.33365723 -44.53056885 86.55842773 -44.51757812 87.8203125 C-44.51439575 88.89555176 -44.51121338 89.97079102 -44.50793457 91.07861328 C-43.87483067 94.71991167 -42.59200315 96.40637768 -40 99 C-37.06963019 99.7135417 -37.06963019 99.7135417 -33.9375 99.5 C-32.89464844 99.4896875 -31.85179687 99.479375 -30.77734375 99.46875 C-27.67139919 98.94453995 -26.82622414 98.50323558 -25 96 C-22.3122195 92.16031357 -22.55499944 87.77248587 -22.375 83.25 C-22.33632812 82.45722656 -22.29765625 81.66445313 -22.2578125 80.84765625 C-22.163892 78.89880584 -22.08087178 76.94943549 -22 75 C-17.58928701 74.87547935 -13.17953143 74.78523473 -8.76757812 74.7253418 C-7.27000077 74.70034993 -5.77254349 74.66634373 -4.27539062 74.62280273 C11.36802866 74.17957252 11.36802866 74.17957252 18 80 C18 80.66 18 81.32 18 82 C9.09 82 0.18 82 -9 82 C-9 96.52 -9 111.04 -9 126 C-8.34 126 -7.68 126 -7 126 C-7 126.66 -7 127.32 -7 128 C-14.73991781 130.11012845 -22.00508742 130.26778718 -30 130.1875 C-31.21945313 130.18685547 -32.43890625 130.18621094 -33.6953125 130.18554688 C-52.27079448 130.09527725 -68.47489019 126.28835076 -82.375 113.0625 C-96.60057104 97.82288621 -98.76014673 76.34041017 -98.3046875 56.31640625 C-97.55228265 39.13235 -91.94856804 21.09000353 -78.98046875 9.1875 C-57.11391909 -6.86134379 -25.18359663 -8.72144028 0 0 Z " fill="#D6D6D6" transform="translate(253,180)"/>
<path d="M0 0 C1.0209375 -0.01160156 1.0209375 -0.01160156 2.0625 -0.0234375 C4.62682976 0.50390451 5.48591622 1.24785162 7 3.375 C7.3984375 5.75 7.3984375 5.75 7.375 8.375 C7.38273438 9.24125 7.39046875 10.1075 7.3984375 11 C7 13.375 7 13.375 5.7265625 15.1640625 C3.65280238 16.61850964 2.51482333 16.77857754 0 16.75 C-0.680625 16.75773437 -1.36125 16.76546875 -2.0625 16.7734375 C-4.62682976 16.24609549 -5.48591622 15.50214838 -7 13.375 C-7.3984375 11 -7.3984375 11 -7.375 8.375 C-7.38273438 7.50875 -7.39046875 6.6425 -7.3984375 5.75 C-7 3.375 -7 3.375 -5.7265625 1.5859375 C-3.65280238 0.13149036 -2.51482333 -0.02857754 0 0 Z " fill="#C7C7C7" transform="translate(205,333.625)"/>
<path d="M0 0 C1.65 0 3.3 0 5 0 C6.65 5.28 8.3 10.56 10 16 C8.68 16 7.36 16 6 16 C5.67 15.01 5.34 14.02 5 13 C2.03 12.505 2.03 12.505 -1 12 C-1.33 13.32 -1.66 14.64 -2 16 C-2.99 16 -3.98 16 -5 16 C-3.90301833 10.30860098 -2.45946923 5.25432063 0 0 Z " fill="#C8C8C8" transform="translate(295,334)"/>
<path d="M0 0 C2.01822917 0.06510417 4.03645833 0.13020833 6.0546875 0.1953125 C6.0546875 1.5153125 6.0546875 2.8353125 6.0546875 4.1953125 C3.7446875 3.8653125 1.4346875 3.5353125 -0.9453125 3.1953125 C0.67096871 6.42787493 3.82462465 6.86867954 7.0546875 8.1953125 C8.0546875 9.1953125 8.0546875 9.1953125 8.2421875 11.6328125 C8.0546875 14.1953125 8.0546875 14.1953125 6.0546875 16.1953125 C3.36629365 16.46523156 0.76326814 16.28268607 -1.9453125 16.1953125 C-2.6053125 14.8753125 -3.2653125 13.5553125 -3.9453125 12.1953125 C-1.10564019 12.1953125 1.29204461 12.59798431 4.0546875 13.1953125 C4.0546875 12.2053125 4.0546875 11.2153125 4.0546875 10.1953125 C1.7446875 9.5353125 -0.5653125 8.8753125 -2.9453125 8.1953125 C-3.5703125 5.3203125 -3.5703125 5.3203125 -3.9453125 2.1953125 C-1.9453125 0.1953125 -1.9453125 0.1953125 0 0 Z " fill="#C2C2C2" transform="translate(261.9453125,333.8046875)"/>
<path d="M0 0 C1.85625 0.1546875 1.85625 0.1546875 3.75 0.3125 C4.41 1.6325 5.07 2.9525 5.75 4.3125 C2.78 4.3125 -0.19 4.3125 -3.25 4.3125 C-3.25 6.9525 -3.25 9.5925 -3.25 12.3125 C-0.05097361 12.40136184 2.67677456 12.22308531 5.75 11.3125 C5.375 13.25 5.375 13.25 4.75 15.3125 C1.62139505 16.87680248 -0.80602925 16.66877284 -4.25 16.3125 C-7.18307135 13.75546344 -8.11097012 12.14667929 -8.75 8.3125 C-7.82900127 2.78650762 -5.6728236 0.0100582 0 0 Z " fill="#C1C1C1" transform="translate(187.25,333.6875)"/>
<path d="M0 0 C3.63 0 7.26 0 11 0 C9.875 5.625 9.875 5.625 6.9375 8.8125 C6.38964844 9.41707031 5.84179688 10.02164062 5.27734375 10.64453125 C4.85582031 11.09183594 4.43429688 11.53914063 4 12 C6.31 12.33 8.62 12.66 11 13 C11 13.99 11 14.98 11 16 C7.04 16 3.08 16 -1 16 C-0.03302499 11.16512496 0.59542796 9.80193322 3.5625 6.1875 C4.20316406 5.39730469 4.84382812 4.60710937 5.50390625 3.79296875 C5.99761719 3.20128906 6.49132812 2.60960937 7 2 C4.69 2 2.38 2 0 2 C0 1.34 0 0.68 0 0 Z " fill="#CBCBCB" transform="translate(218,334)"/>
<path d="M0 0 C3.96 0 7.92 0 12 0 C12 0.99 12 1.98 12 3 C10.68 3 9.36 3 8 3 C8 7.29 8 11.58 8 16 C6.68 16 5.36 16 4 16 C4 11.38 4 6.76 4 2 C2.68 2 1.36 2 0 2 C0 1.34 0 0.68 0 0 Z " fill="#BABABA" transform="translate(274,334)"/>
<path d="M0 0 C3.79588866 0.54226981 5.47211993 2.20127563 8 5 C8.66 3.35 9.32 1.7 10 0 C11.32 0.33 12.64 0.66 14 1 C13.65066406 1.49628906 13.30132812 1.99257813 12.94140625 2.50390625 C9.85889249 7.10584605 8.34610059 10.46239061 8 16 C7.01 16 6.02 16 5 16 C4.89042969 15.40832031 4.78085937 14.81664062 4.66796875 14.20703125 C3.732075 9.54278029 2.67286745 6.00930117 0 2 C0 1.34 0 0.68 0 0 Z " fill="#C6C6C6" transform="translate(308,334)"/>
<path d="M0 0 C1.875 0.25 1.875 0.25 4 1 C5.25 3.0625 5.25 3.0625 6 5 C6.598125 4.175 7.19625 3.35 7.8125 2.5 C8.534375 1.675 9.25625 0.85 10 0 C10.99 0 11.98 0 13 0 C11.17708333 4.6875 11.17708333 4.6875 9.9375 6.875 C8.62876356 9.84146927 8.36953746 12.79734198 8 16 C7.01 16 6.02 16 5 16 C4.87625 14.4840625 4.87625 14.4840625 4.75 12.9375 C4.16227462 8.62166584 2.24385159 5.69149778 0 2 C0 1.34 0 0.68 0 0 Z " fill="#C9C9C9" transform="translate(233,334)"/>
<path d="M0 0 C4.55555556 0.55555556 4.55555556 0.55555556 6 2 C6.1328125 3.8125 6.1328125 3.8125 6.125 6 C6.12757813 6.721875 6.13015625 7.44375 6.1328125 8.1875 C6 10 6 10 5 11 C3.00041636 11.04080783 0.99954746 11.04254356 -1 11 C-2.50662097 7.98675805 -2.17770373 5.31713623 -2 2 C-1.34 1.34 -0.68 0.68 0 0 Z " fill="#0D0D0D" transform="translate(203,336)"/>
<path d="M0 0 C5.48605578 -0.36573705 5.48605578 -0.36573705 7.6796875 1.1953125 C9.43015901 3.58796882 9.36876764 5.12359779 9.3125 8.0625 C9.30863281 8.94035156 9.30476562 9.81820313 9.30078125 10.72265625 C9 13 9 13 7 15 C6.01 14.67 5.02 14.34 4 14 C4.33 13.34 4.66 12.68 5 12 C5.0689472 10.62657169 5.08467708 9.24997898 5.0625 7.875 C5.041875 6.59625 5.02125 5.3175 5 4 C1.41672247 2.99782936 1.41672247 2.99782936 -2 4 C-1.34 2.68 -0.68 1.36 0 0 Z " fill="#D0D0D0" transform="translate(203,334)"/>
<path d="M0 0 C0.66 0 1.32 0 2 0 C2.33 1.98 2.66 3.96 3 6 C1.68 6 0.36 6 -1 6 C-0.67 4.02 -0.34 2.04 0 0 Z " fill="#353535" transform="translate(296,338)"/>
</svg>
